<mxfile host="app.diagrams.net" agent="Mozilla/5.0 (X11; Ubuntu; Linux x86_64; rv:131.0) Gecko/20100101 Firefox/131.0" version="24.8.4">
  <diagram name="Page-1" id="UtBNDfn8IIDB6-av0K0q">
    <mxGraphModel dx="1648" dy="924" grid="0" gridSize="10" guides="0" tooltips="1" connect="1" arrows="1" fold="1" page="1" pageScale="1" pageWidth="827" pageHeight="1169" math="0" shadow="0">
      <root>
        <mxCell id="0" />
        <mxCell id="1" parent="0" />
        <mxCell id="tl4poTx89u1U0Vo0xO1h-35" value="" style="rounded=0;whiteSpace=wrap;html=1;" parent="1" vertex="1">
          <mxGeometry x="473" y="134" width="863" height="760" as="geometry" />
        </mxCell>
        <mxCell id="tl4poTx89u1U0Vo0xO1h-1" value="Joueur" style="shape=umlActor;verticalLabelPosition=bottom;verticalAlign=top;html=1;outlineConnect=0;" parent="1" vertex="1">
          <mxGeometry x="12" y="709" width="210" height="320" as="geometry" />
        </mxCell>
        <mxCell id="fJX49_q2fESSbCwYfbrY-16" style="edgeStyle=orthogonalEdgeStyle;rounded=0;orthogonalLoop=1;jettySize=auto;html=1;entryX=0;entryY=0.5;entryDx=0;entryDy=0;" edge="1" parent="1" source="tl4poTx89u1U0Vo0xO1h-4">
          <mxGeometry relative="1" as="geometry">
            <mxPoint x="473" y="373" as="targetPoint" />
          </mxGeometry>
        </mxCell>
        <mxCell id="tl4poTx89u1U0Vo0xO1h-4" value="Association" style="shape=umlActor;verticalLabelPosition=bottom;verticalAlign=top;html=1;outlineConnect=0;" parent="1" vertex="1">
          <mxGeometry x="53" y="198" width="210" height="350" as="geometry" />
        </mxCell>
        <mxCell id="fJX49_q2fESSbCwYfbrY-3" value="" style="shape=folder;fontStyle=1;spacingTop=10;tabWidth=164;tabHeight=40;tabPosition=left;html=1;whiteSpace=wrap;" vertex="1" parent="1">
          <mxGeometry x="485" y="623" width="304" height="259" as="geometry" />
        </mxCell>
        <mxCell id="tl4poTx89u1U0Vo0xO1h-78" value="modification informations compte" style="ellipse;whiteSpace=wrap;html=1;" parent="1" vertex="1">
          <mxGeometry x="996" y="418" width="120" height="80" as="geometry" />
        </mxCell>
        <mxCell id="fJX49_q2fESSbCwYfbrY-5" value="Gestion des actions du jeu" style="text;html=1;align=center;verticalAlign=middle;resizable=0;points=[];autosize=1;strokeColor=none;fillColor=none;" vertex="1" parent="1">
          <mxGeometry x="485" y="630.6399999999999" width="160" height="30" as="geometry" />
        </mxCell>
        <mxCell id="tl4poTx89u1U0Vo0xO1h-57" value="Résolution d&#39;énigmes" style="ellipse;whiteSpace=wrap;html=1;" parent="1" vertex="1">
          <mxGeometry x="502" y="686" width="120" height="80" as="geometry" />
        </mxCell>
        <mxCell id="tl4poTx89u1U0Vo0xO1h-58" value="Déblocage du phare" style="ellipse;whiteSpace=wrap;html=1;" parent="1" vertex="1">
          <mxGeometry x="644" y="692" width="120" height="80" as="geometry" />
        </mxCell>
        <mxCell id="tl4poTx89u1U0Vo0xO1h-61" value="Prise de photo" style="ellipse;whiteSpace=wrap;html=1;" parent="1" vertex="1">
          <mxGeometry x="565" y="789" width="120" height="80" as="geometry" />
        </mxCell>
        <mxCell id="fJX49_q2fESSbCwYfbrY-6" value="" style="shape=folder;fontStyle=1;spacingTop=10;tabWidth=140;tabHeight=30;tabPosition=left;html=1;whiteSpace=wrap;" vertex="1" parent="1">
          <mxGeometry x="875" y="555" width="230" height="270" as="geometry" />
        </mxCell>
        <mxCell id="tl4poTx89u1U0Vo0xO1h-69" value="Gestion de la boutique" style="text;html=1;align=center;verticalAlign=middle;whiteSpace=wrap;rounded=0;" parent="1" vertex="1">
          <mxGeometry x="875" y="555" width="140" height="30" as="geometry" />
        </mxCell>
        <mxCell id="tl4poTx89u1U0Vo0xO1h-67" value="Achat de jetons" style="ellipse;whiteSpace=wrap;html=1;" parent="1" vertex="1">
          <mxGeometry x="930" y="605.0000000000002" width="120" height="80" as="geometry" />
        </mxCell>
        <mxCell id="tl4poTx89u1U0Vo0xO1h-68" value="Achat de DLC" style="ellipse;whiteSpace=wrap;html=1;" parent="1" vertex="1">
          <mxGeometry x="930" y="720.0000000000002" width="120" height="80" as="geometry" />
        </mxCell>
        <mxCell id="fJX49_q2fESSbCwYfbrY-8" value="" style="shape=folder;fontStyle=1;spacingTop=10;tabWidth=230;tabHeight=30;tabPosition=left;html=1;whiteSpace=wrap;" vertex="1" parent="1">
          <mxGeometry x="481" y="139" width="337" height="333" as="geometry" />
        </mxCell>
        <mxCell id="tl4poTx89u1U0Vo0xO1h-40" value="Actions d&#39;organisation d&#39;evenement" style="text;html=1;align=center;verticalAlign=middle;whiteSpace=wrap;rounded=0;" parent="1" vertex="1">
          <mxGeometry x="481" y="139" width="210" height="30" as="geometry" />
        </mxCell>
        <mxCell id="tl4poTx89u1U0Vo0xO1h-11" value="Suppression d&#39;un événement" style="ellipse;whiteSpace=wrap;html=1;" parent="1" vertex="1">
          <mxGeometry x="503" y="188" width="120" height="80" as="geometry" />
        </mxCell>
        <mxCell id="tl4poTx89u1U0Vo0xO1h-12" value="Modification d&#39;un événement" style="ellipse;whiteSpace=wrap;html=1;" parent="1" vertex="1">
          <mxGeometry x="646" y="189" width="120" height="80" as="geometry" />
        </mxCell>
        <mxCell id="tl4poTx89u1U0Vo0xO1h-10" value="Ajout d&#39;un evenement" style="ellipse;whiteSpace=wrap;html=1;" parent="1" vertex="1">
          <mxGeometry x="654" y="285" width="120" height="80" as="geometry" />
        </mxCell>
        <mxCell id="tl4poTx89u1U0Vo0xO1h-9" value="Rechercher les événements" style="ellipse;whiteSpace=wrap;html=1;" parent="1" vertex="1">
          <mxGeometry x="515" y="294" width="120" height="80" as="geometry" />
        </mxCell>
        <mxCell id="tl4poTx89u1U0Vo0xO1h-45" value="Réserver une place à un evenement depuis le site" style="ellipse;whiteSpace=wrap;html=1;" parent="1" vertex="1">
          <mxGeometry x="546" y="377" width="210" height="80" as="geometry" />
        </mxCell>
        <mxCell id="fJX49_q2fESSbCwYfbrY-21" style="edgeStyle=orthogonalEdgeStyle;rounded=0;orthogonalLoop=1;jettySize=auto;html=1;entryX=-0.001;entryY=0.751;entryDx=0;entryDy=0;entryPerimeter=0;" edge="1" parent="1" source="tl4poTx89u1U0Vo0xO1h-1" target="fJX49_q2fESSbCwYfbrY-3">
          <mxGeometry relative="1" as="geometry">
            <Array as="points">
              <mxPoint x="393" y="917" />
              <mxPoint x="393" y="818" />
            </Array>
          </mxGeometry>
        </mxCell>
        <mxCell id="fJX49_q2fESSbCwYfbrY-25" style="edgeStyle=orthogonalEdgeStyle;rounded=0;orthogonalLoop=1;jettySize=auto;html=1;entryX=0.5;entryY=1;entryDx=0;entryDy=0;entryPerimeter=0;" edge="1" parent="1" source="tl4poTx89u1U0Vo0xO1h-1" target="fJX49_q2fESSbCwYfbrY-6">
          <mxGeometry relative="1" as="geometry">
            <Array as="points">
              <mxPoint x="990" y="949" />
            </Array>
          </mxGeometry>
        </mxCell>
        <mxCell id="fJX49_q2fESSbCwYfbrY-26" style="edgeStyle=orthogonalEdgeStyle;rounded=0;orthogonalLoop=1;jettySize=auto;html=1;entryX=0.039;entryY=0.734;entryDx=0;entryDy=0;entryPerimeter=0;" edge="1" parent="1" source="tl4poTx89u1U0Vo0xO1h-1" target="tl4poTx89u1U0Vo0xO1h-78">
          <mxGeometry relative="1" as="geometry">
            <Array as="points">
              <mxPoint x="360" y="869" />
              <mxPoint x="360" y="528" />
              <mxPoint x="997" y="528" />
            </Array>
          </mxGeometry>
        </mxCell>
        <mxCell id="fJX49_q2fESSbCwYfbrY-27" style="edgeStyle=orthogonalEdgeStyle;rounded=0;orthogonalLoop=1;jettySize=auto;html=1;entryX=0.059;entryY=0.734;entryDx=0;entryDy=0;entryPerimeter=0;" edge="1" parent="1" source="tl4poTx89u1U0Vo0xO1h-4" target="tl4poTx89u1U0Vo0xO1h-78">
          <mxGeometry relative="1" as="geometry">
            <Array as="points">
              <mxPoint x="451" y="481" />
              <mxPoint x="451" y="481" />
            </Array>
          </mxGeometry>
        </mxCell>
      </root>
    </mxGraphModel>
  </diagram>
</mxfile>
